<mxfile host="app.diagrams.net" agent="Mozilla/5.0 (Windows NT 10.0; Win64; x64) AppleWebKit/537.36 (KHTML, like Gecko) Chrome/128.0.0.0 Safari/537.36 OPR/114.0.0.0" scale="1" border="0" version="24.8.6">
  <diagram name="PÃ¡gina-1" id="b1OD25l1e3vOusEQgPLb">
    <mxGraphModel dx="1393" dy="801" grid="1" gridSize="10" guides="1" tooltips="1" connect="1" arrows="1" fold="1" page="1" pageScale="1" pageWidth="827" pageHeight="1169" math="0" shadow="0">
      <root>
        <mxCell id="0" />
        <mxCell id="1" parent="0" />
        <mxCell id="5X8iXu0XxAFvD4XVziGp-72" value="" style="whiteSpace=wrap;html=1;aspect=fixed;fillColor=#f8cecc;strokeColor=#b85450;" parent="1" vertex="1">
          <mxGeometry x="200" y="160" width="40" height="40" as="geometry" />
        </mxCell>
        <mxCell id="5X8iXu0XxAFvD4XVziGp-76" value="" style="whiteSpace=wrap;html=1;aspect=fixed;fillColor=#f8cecc;strokeColor=#b85450;" parent="1" vertex="1">
          <mxGeometry x="280" y="160" width="40" height="40" as="geometry" />
        </mxCell>
        <mxCell id="5X8iXu0XxAFvD4XVziGp-80" value="" style="whiteSpace=wrap;html=1;aspect=fixed;fillColor=#f8cecc;strokeColor=#b85450;" parent="1" vertex="1">
          <mxGeometry x="360" y="160" width="40" height="40" as="geometry" />
        </mxCell>
        <mxCell id="5X8iXu0XxAFvD4XVziGp-84" value="" style="whiteSpace=wrap;html=1;aspect=fixed;fillColor=#f8cecc;strokeColor=#b85450;" parent="1" vertex="1">
          <mxGeometry x="440" y="160" width="40" height="40" as="geometry" />
        </mxCell>
        <mxCell id="5X8iXu0XxAFvD4XVziGp-88" value="&lt;b&gt;I&lt;/b&gt;" style="whiteSpace=wrap;html=1;aspect=fixed;fillColor=#dae8fc;strokeColor=#6c8ebf;" parent="1" vertex="1">
          <mxGeometry x="200" y="100" width="20" height="20" as="geometry" />
        </mxCell>
        <mxCell id="5X8iXu0XxAFvD4XVziGp-89" value="&lt;b&gt;O&lt;/b&gt;" style="whiteSpace=wrap;html=1;aspect=fixed;fillColor=#dae8fc;strokeColor=#6c8ebf;" parent="1" vertex="1">
          <mxGeometry x="220" y="100" width="20" height="20" as="geometry" />
        </mxCell>
        <mxCell id="5X8iXu0XxAFvD4XVziGp-92" value="&lt;b&gt;I&lt;/b&gt;" style="whiteSpace=wrap;html=1;aspect=fixed;fillColor=#dae8fc;strokeColor=#6c8ebf;" parent="1" vertex="1">
          <mxGeometry x="280" y="100" width="20" height="20" as="geometry" />
        </mxCell>
        <mxCell id="5X8iXu0XxAFvD4XVziGp-93" value="&lt;b&gt;O&lt;/b&gt;" style="whiteSpace=wrap;html=1;aspect=fixed;fillColor=#dae8fc;strokeColor=#6c8ebf;" parent="1" vertex="1">
          <mxGeometry x="300" y="100" width="20" height="20" as="geometry" />
        </mxCell>
        <mxCell id="5X8iXu0XxAFvD4XVziGp-94" value="&lt;b&gt;I&lt;/b&gt;" style="whiteSpace=wrap;html=1;aspect=fixed;fillColor=#dae8fc;strokeColor=#6c8ebf;" parent="1" vertex="1">
          <mxGeometry x="360" y="100" width="20" height="20" as="geometry" />
        </mxCell>
        <mxCell id="5X8iXu0XxAFvD4XVziGp-95" value="&lt;b&gt;O&lt;/b&gt;" style="whiteSpace=wrap;html=1;aspect=fixed;fillColor=#dae8fc;strokeColor=#6c8ebf;" parent="1" vertex="1">
          <mxGeometry x="380" y="100" width="20" height="20" as="geometry" />
        </mxCell>
        <mxCell id="5X8iXu0XxAFvD4XVziGp-96" value="&lt;b&gt;I&lt;/b&gt;" style="whiteSpace=wrap;html=1;aspect=fixed;fillColor=#dae8fc;strokeColor=#6c8ebf;" parent="1" vertex="1">
          <mxGeometry x="440" y="100" width="20" height="20" as="geometry" />
        </mxCell>
        <mxCell id="5X8iXu0XxAFvD4XVziGp-97" value="&lt;b&gt;O&lt;/b&gt;" style="whiteSpace=wrap;html=1;aspect=fixed;fillColor=#dae8fc;strokeColor=#6c8ebf;" parent="1" vertex="1">
          <mxGeometry x="460" y="100" width="20" height="20" as="geometry" />
        </mxCell>
        <mxCell id="5X8iXu0XxAFvD4XVziGp-106" value="&lt;b&gt;I&lt;/b&gt;" style="whiteSpace=wrap;html=1;aspect=fixed;fillColor=#dae8fc;strokeColor=#6c8ebf;" parent="1" vertex="1">
          <mxGeometry x="520" y="160" width="20" height="20" as="geometry" />
        </mxCell>
        <mxCell id="5X8iXu0XxAFvD4XVziGp-107" value="&lt;b&gt;O&lt;/b&gt;" style="whiteSpace=wrap;html=1;aspect=fixed;fillColor=#dae8fc;strokeColor=#6c8ebf;" parent="1" vertex="1">
          <mxGeometry x="520" y="180" width="20" height="20" as="geometry" />
        </mxCell>
        <mxCell id="5X8iXu0XxAFvD4XVziGp-117" value="&lt;b&gt;I&lt;/b&gt;" style="whiteSpace=wrap;html=1;aspect=fixed;fillColor=#dae8fc;strokeColor=#6c8ebf;" parent="1" vertex="1">
          <mxGeometry x="520" y="240" width="20" height="20" as="geometry" />
        </mxCell>
        <mxCell id="5X8iXu0XxAFvD4XVziGp-118" value="&lt;b&gt;O&lt;/b&gt;" style="whiteSpace=wrap;html=1;aspect=fixed;fillColor=#dae8fc;strokeColor=#6c8ebf;" parent="1" vertex="1">
          <mxGeometry x="520" y="260" width="20" height="20" as="geometry" />
        </mxCell>
        <mxCell id="5X8iXu0XxAFvD4XVziGp-125" value="&lt;b&gt;I&lt;/b&gt;" style="whiteSpace=wrap;html=1;aspect=fixed;fillColor=#dae8fc;strokeColor=#6c8ebf;" parent="1" vertex="1">
          <mxGeometry x="140" y="160" width="20" height="20" as="geometry" />
        </mxCell>
        <mxCell id="5X8iXu0XxAFvD4XVziGp-126" value="&lt;b&gt;O&lt;/b&gt;" style="whiteSpace=wrap;html=1;aspect=fixed;fillColor=#dae8fc;strokeColor=#6c8ebf;" parent="1" vertex="1">
          <mxGeometry x="140" y="180" width="20" height="20" as="geometry" />
        </mxCell>
        <mxCell id="5X8iXu0XxAFvD4XVziGp-127" value="&lt;b&gt;I&lt;/b&gt;" style="whiteSpace=wrap;html=1;aspect=fixed;fillColor=#dae8fc;strokeColor=#6c8ebf;" parent="1" vertex="1">
          <mxGeometry x="140" y="240" width="20" height="20" as="geometry" />
        </mxCell>
        <mxCell id="5X8iXu0XxAFvD4XVziGp-128" value="&lt;b&gt;O&lt;/b&gt;" style="whiteSpace=wrap;html=1;aspect=fixed;fillColor=#dae8fc;strokeColor=#6c8ebf;" parent="1" vertex="1">
          <mxGeometry x="140" y="260" width="20" height="20" as="geometry" />
        </mxCell>
        <mxCell id="5X8iXu0XxAFvD4XVziGp-134" value="" style="shape=partialRectangle;whiteSpace=wrap;html=1;bottom=0;right=0;fillColor=none;" parent="1" vertex="1">
          <mxGeometry x="170" y="130" width="40" height="40" as="geometry" />
        </mxCell>
        <mxCell id="5X8iXu0XxAFvD4XVziGp-138" value="" style="shape=partialRectangle;whiteSpace=wrap;html=1;bottom=0;right=0;fillColor=none;" parent="1" vertex="1">
          <mxGeometry x="190" y="150" width="20" height="20" as="geometry" />
        </mxCell>
        <mxCell id="5X8iXu0XxAFvD4XVziGp-141" value="" style="shape=partialRectangle;whiteSpace=wrap;html=1;bottom=0;right=0;fillColor=none;flipH=1;" parent="1" vertex="1">
          <mxGeometry x="470" y="130" width="40" height="40" as="geometry" />
        </mxCell>
        <mxCell id="5X8iXu0XxAFvD4XVziGp-142" value="" style="shape=partialRectangle;whiteSpace=wrap;html=1;bottom=0;right=0;fillColor=none;flipH=1;" parent="1" vertex="1">
          <mxGeometry x="470" y="150" width="20" height="20" as="geometry" />
        </mxCell>
        <mxCell id="5X8iXu0XxAFvD4XVziGp-167" value="" style="shape=partialRectangle;whiteSpace=wrap;html=1;left=0;right=0;fillColor=none;flipV=1;rotation=90;" parent="1" vertex="1">
          <mxGeometry x="169.68" y="270.31" width="20.63" height="20" as="geometry" />
        </mxCell>
        <mxCell id="5X8iXu0XxAFvD4XVziGp-168" value="" style="shape=partialRectangle;whiteSpace=wrap;html=1;left=0;right=0;fillColor=none;flipV=1;rotation=90;" parent="1" vertex="1">
          <mxGeometry x="170.32" y="189.69" width="19.37" height="20" as="geometry" />
        </mxCell>
        <mxCell id="5X8iXu0XxAFvD4XVziGp-173" value="" style="shape=partialRectangle;whiteSpace=wrap;html=1;left=0;right=0;fillColor=none;" parent="1" vertex="1">
          <mxGeometry x="160" y="170" width="10" height="20" as="geometry" />
        </mxCell>
        <mxCell id="5X8iXu0XxAFvD4XVziGp-174" value="" style="shape=partialRectangle;whiteSpace=wrap;html=1;left=0;right=0;fillColor=none;" parent="1" vertex="1">
          <mxGeometry x="190" y="170" width="10" height="20" as="geometry" />
        </mxCell>
        <mxCell id="5X8iXu0XxAFvD4XVziGp-175" value="" style="shape=partialRectangle;whiteSpace=wrap;html=1;left=0;right=0;fillColor=none;" parent="1" vertex="1">
          <mxGeometry x="160" y="250" width="10" height="20" as="geometry" />
        </mxCell>
        <mxCell id="5X8iXu0XxAFvD4XVziGp-177" value="" style="shape=partialRectangle;whiteSpace=wrap;html=1;left=0;right=0;fillColor=none;flipV=1;rotation=90;" parent="1" vertex="1">
          <mxGeometry x="170.31" y="230" width="19.37" height="20" as="geometry" />
        </mxCell>
        <mxCell id="5X8iXu0XxAFvD4XVziGp-192" value="" style="shape=partialRectangle;whiteSpace=wrap;html=1;left=0;right=0;fillColor=none;flipV=1;rotation=90;" parent="1" vertex="1">
          <mxGeometry x="489.69" y="269.85" width="20.63" height="20" as="geometry" />
        </mxCell>
        <mxCell id="5X8iXu0XxAFvD4XVziGp-193" value="" style="shape=partialRectangle;whiteSpace=wrap;html=1;left=0;right=0;fillColor=none;flipV=1;rotation=90;" parent="1" vertex="1">
          <mxGeometry x="490.31999999999994" y="189.69" width="19.37" height="20" as="geometry" />
        </mxCell>
        <mxCell id="5X8iXu0XxAFvD4XVziGp-194" value="" style="shape=partialRectangle;whiteSpace=wrap;html=1;left=0;right=0;fillColor=none;" parent="1" vertex="1">
          <mxGeometry x="480" y="170" width="10" height="20" as="geometry" />
        </mxCell>
        <mxCell id="5X8iXu0XxAFvD4XVziGp-195" value="" style="shape=partialRectangle;whiteSpace=wrap;html=1;left=0;right=0;fillColor=none;" parent="1" vertex="1">
          <mxGeometry x="510" y="170" width="10" height="20" as="geometry" />
        </mxCell>
        <mxCell id="5X8iXu0XxAFvD4XVziGp-196" value="" style="shape=partialRectangle;whiteSpace=wrap;html=1;left=0;right=0;fillColor=none;" parent="1" vertex="1">
          <mxGeometry x="480" y="250" width="10" height="20" as="geometry" />
        </mxCell>
        <mxCell id="5X8iXu0XxAFvD4XVziGp-197" value="" style="shape=partialRectangle;whiteSpace=wrap;html=1;left=0;right=0;fillColor=none;" parent="1" vertex="1">
          <mxGeometry x="510" y="250" width="10" height="20" as="geometry" />
        </mxCell>
        <mxCell id="5X8iXu0XxAFvD4XVziGp-198" value="" style="shape=partialRectangle;whiteSpace=wrap;html=1;left=0;right=0;fillColor=none;flipV=1;rotation=90;" parent="1" vertex="1">
          <mxGeometry x="490.30999999999995" y="230" width="19.37" height="20" as="geometry" />
        </mxCell>
        <mxCell id="5X8iXu0XxAFvD4XVziGp-211" value="" style="shape=partialRectangle;whiteSpace=wrap;html=1;left=0;right=0;fillColor=none;flipV=1;rotation=90;" parent="1" vertex="1">
          <mxGeometry x="250.31999999999994" y="189.69" width="19.37" height="20" as="geometry" />
        </mxCell>
        <mxCell id="5X8iXu0XxAFvD4XVziGp-212" value="" style="shape=partialRectangle;whiteSpace=wrap;html=1;left=0;right=0;fillColor=none;" parent="1" vertex="1">
          <mxGeometry x="240" y="170" width="10" height="20" as="geometry" />
        </mxCell>
        <mxCell id="5X8iXu0XxAFvD4XVziGp-213" value="" style="shape=partialRectangle;whiteSpace=wrap;html=1;left=0;right=0;fillColor=none;" parent="1" vertex="1">
          <mxGeometry x="270" y="170" width="10" height="20" as="geometry" />
        </mxCell>
        <mxCell id="5X8iXu0XxAFvD4XVziGp-226" value="" style="shape=partialRectangle;whiteSpace=wrap;html=1;left=0;right=0;fillColor=none;flipV=1;rotation=90;" parent="1" vertex="1">
          <mxGeometry x="330.31999999999994" y="190.78" width="19.37" height="20" as="geometry" />
        </mxCell>
        <mxCell id="5X8iXu0XxAFvD4XVziGp-227" value="" style="shape=partialRectangle;whiteSpace=wrap;html=1;left=0;right=0;fillColor=none;" parent="1" vertex="1">
          <mxGeometry x="320" y="171.09" width="10" height="20" as="geometry" />
        </mxCell>
        <mxCell id="5X8iXu0XxAFvD4XVziGp-228" value="" style="shape=partialRectangle;whiteSpace=wrap;html=1;left=0;right=0;fillColor=none;" parent="1" vertex="1">
          <mxGeometry x="350" y="171.09" width="10" height="20" as="geometry" />
        </mxCell>
        <mxCell id="5X8iXu0XxAFvD4XVziGp-241" value="" style="shape=partialRectangle;whiteSpace=wrap;html=1;left=0;right=0;fillColor=none;flipV=1;rotation=90;" parent="1" vertex="1">
          <mxGeometry x="410.31999999999994" y="190.78" width="19.37" height="20" as="geometry" />
        </mxCell>
        <mxCell id="5X8iXu0XxAFvD4XVziGp-242" value="" style="shape=partialRectangle;whiteSpace=wrap;html=1;left=0;right=0;fillColor=none;" parent="1" vertex="1">
          <mxGeometry x="400" y="171.09" width="10" height="20" as="geometry" />
        </mxCell>
        <mxCell id="5X8iXu0XxAFvD4XVziGp-243" value="" style="shape=partialRectangle;whiteSpace=wrap;html=1;left=0;right=0;fillColor=none;" parent="1" vertex="1">
          <mxGeometry x="430" y="171.09" width="10" height="20" as="geometry" />
        </mxCell>
        <mxCell id="5X8iXu0XxAFvD4XVziGp-289" value="" style="shape=partialRectangle;whiteSpace=wrap;html=1;left=0;right=0;fillColor=none;flipV=1;rotation=90;bottom=0;" parent="1" vertex="1">
          <mxGeometry x="170.32" y="209.69" width="19.37" height="20" as="geometry" />
        </mxCell>
        <mxCell id="5X8iXu0XxAFvD4XVziGp-292" value="" style="shape=partialRectangle;whiteSpace=wrap;html=1;left=0;right=0;fillColor=none;flipV=1;rotation=90;bottom=1;top=0;" parent="1" vertex="1">
          <mxGeometry x="490.32" y="209.38" width="19.37" height="20.31" as="geometry" />
        </mxCell>
        <mxCell id="5X8iXu0XxAFvD4XVziGp-329" value="" style="shape=partialRectangle;whiteSpace=wrap;html=1;bottom=0;right=0;fillColor=none;flipH=1;flipV=1;" parent="1" vertex="1">
          <mxGeometry x="190" y="200" width="20" height="9.38" as="geometry" />
        </mxCell>
        <mxCell id="5X8iXu0XxAFvD4XVziGp-330" value="" style="shape=partialRectangle;whiteSpace=wrap;html=1;bottom=0;right=0;fillColor=none;flipH=1;flipV=1;" parent="1" vertex="1">
          <mxGeometry x="270" y="200.31" width="20" height="9.38" as="geometry" />
        </mxCell>
        <mxCell id="5X8iXu0XxAFvD4XVziGp-331" value="" style="shape=partialRectangle;whiteSpace=wrap;html=1;bottom=0;right=0;fillColor=none;flipH=1;flipV=1;" parent="1" vertex="1">
          <mxGeometry x="350" y="200" width="20" height="10.78" as="geometry" />
        </mxCell>
        <mxCell id="5X8iXu0XxAFvD4XVziGp-333" value="" style="shape=partialRectangle;whiteSpace=wrap;html=1;bottom=0;right=0;fillColor=none;flipH=1;flipV=1;" parent="1" vertex="1">
          <mxGeometry x="430" y="200.31" width="20" height="10.78" as="geometry" />
        </mxCell>
        <mxCell id="5X8iXu0XxAFvD4XVziGp-334" value="" style="shape=partialRectangle;whiteSpace=wrap;html=1;bottom=0;right=0;fillColor=none;flipH=0;flipV=1;" parent="1" vertex="1">
          <mxGeometry x="230" y="200" width="20" height="9.38" as="geometry" />
        </mxCell>
        <mxCell id="5X8iXu0XxAFvD4XVziGp-336" value="" style="shape=partialRectangle;whiteSpace=wrap;html=1;bottom=0;right=0;fillColor=none;flipH=0;flipV=1;" parent="1" vertex="1">
          <mxGeometry x="310" y="201.01" width="20" height="9.38" as="geometry" />
        </mxCell>
        <mxCell id="5X8iXu0XxAFvD4XVziGp-337" value="" style="shape=partialRectangle;whiteSpace=wrap;html=1;bottom=0;right=0;fillColor=none;flipH=0;flipV=1;" parent="1" vertex="1">
          <mxGeometry x="390" y="201.01" width="20" height="9.38" as="geometry" />
        </mxCell>
        <mxCell id="5X8iXu0XxAFvD4XVziGp-338" value="" style="shape=partialRectangle;whiteSpace=wrap;html=1;bottom=0;right=0;fillColor=none;flipH=0;flipV=1;" parent="1" vertex="1">
          <mxGeometry x="470" y="200.31" width="20" height="9.38" as="geometry" />
        </mxCell>
        <mxCell id="5X8iXu0XxAFvD4XVziGp-339" value="" style="shape=partialRectangle;whiteSpace=wrap;html=1;bottom=0;right=0;fillColor=none;flipH=1;flipV=0;" parent="1" vertex="1">
          <mxGeometry x="190" y="150" width="20" height="9.38" as="geometry" />
        </mxCell>
        <mxCell id="5X8iXu0XxAFvD4XVziGp-343" value="" style="shape=partialRectangle;whiteSpace=wrap;html=1;bottom=0;right=0;fillColor=none;flipH=1;" parent="1" vertex="1">
          <mxGeometry x="390.33" y="150" width="20" height="20" as="geometry" />
        </mxCell>
        <mxCell id="5X8iXu0XxAFvD4XVziGp-344" value="" style="shape=partialRectangle;whiteSpace=wrap;html=1;bottom=0;right=0;fillColor=none;flipH=1;" parent="1" vertex="1">
          <mxGeometry x="310" y="150.62" width="20" height="20" as="geometry" />
        </mxCell>
        <mxCell id="5X8iXu0XxAFvD4XVziGp-345" value="" style="shape=partialRectangle;whiteSpace=wrap;html=1;bottom=0;right=0;fillColor=none;flipH=1;" parent="1" vertex="1">
          <mxGeometry x="230.32999999999998" y="150" width="20" height="20" as="geometry" />
        </mxCell>
        <mxCell id="5X8iXu0XxAFvD4XVziGp-347" value="" style="shape=partialRectangle;whiteSpace=wrap;html=1;bottom=0;right=0;fillColor=none;flipH=0;flipV=0;" parent="1" vertex="1">
          <mxGeometry x="228.75" y="150" width="20" height="9.38" as="geometry" />
        </mxCell>
        <mxCell id="5X8iXu0XxAFvD4XVziGp-349" value="" style="shape=partialRectangle;whiteSpace=wrap;html=1;bottom=0;right=0;fillColor=none;" parent="1" vertex="1">
          <mxGeometry x="270" y="150" width="20" height="20" as="geometry" />
        </mxCell>
        <mxCell id="5X8iXu0XxAFvD4XVziGp-350" value="" style="shape=partialRectangle;whiteSpace=wrap;html=1;bottom=0;right=0;fillColor=none;" parent="1" vertex="1">
          <mxGeometry x="350" y="150" width="20" height="21.09" as="geometry" />
        </mxCell>
        <mxCell id="5X8iXu0XxAFvD4XVziGp-351" value="" style="shape=partialRectangle;whiteSpace=wrap;html=1;bottom=0;right=0;fillColor=none;" parent="1" vertex="1">
          <mxGeometry x="430" y="150" width="20" height="21.09" as="geometry" />
        </mxCell>
        <mxCell id="5X8iXu0XxAFvD4XVziGp-392" value="" style="shape=partialRectangle;whiteSpace=wrap;html=1;left=0;right=0;fillColor=none;flipV=1;flipH=1;rotation=-90;" parent="1" vertex="1">
          <mxGeometry x="294.96" y="145.19" width="9.93" height="19.85" as="geometry" />
        </mxCell>
        <mxCell id="5X8iXu0XxAFvD4XVziGp-393" value="" style="shape=partialRectangle;whiteSpace=wrap;html=1;left=0;right=0;fillColor=none;flipV=1;flipH=1;rotation=-90;" parent="1" vertex="1">
          <mxGeometry x="375.03" y="145.19" width="9.93" height="19.85" as="geometry" />
        </mxCell>
        <mxCell id="5X8iXu0XxAFvD4XVziGp-394" value="" style="shape=partialRectangle;whiteSpace=wrap;html=1;left=0;right=0;fillColor=none;flipV=1;flipH=1;rotation=-90;" parent="1" vertex="1">
          <mxGeometry x="455.03" y="145.19" width="9.93" height="19.85" as="geometry" />
        </mxCell>
        <mxCell id="5X8iXu0XxAFvD4XVziGp-398" value="" style="whiteSpace=wrap;html=1;aspect=fixed;fillColor=#f8cecc;strokeColor=#b85450;" parent="1" vertex="1">
          <mxGeometry x="200" y="240.16" width="40" height="40" as="geometry" />
        </mxCell>
        <mxCell id="5X8iXu0XxAFvD4XVziGp-399" value="" style="whiteSpace=wrap;html=1;aspect=fixed;fillColor=#f8cecc;strokeColor=#b85450;" parent="1" vertex="1">
          <mxGeometry x="280" y="240.16" width="40" height="40" as="geometry" />
        </mxCell>
        <mxCell id="5X8iXu0XxAFvD4XVziGp-400" value="" style="whiteSpace=wrap;html=1;aspect=fixed;fillColor=#f8cecc;strokeColor=#b85450;" parent="1" vertex="1">
          <mxGeometry x="360" y="240.16" width="40" height="40" as="geometry" />
        </mxCell>
        <mxCell id="5X8iXu0XxAFvD4XVziGp-401" value="" style="whiteSpace=wrap;html=1;aspect=fixed;fillColor=#f8cecc;strokeColor=#b85450;" parent="1" vertex="1">
          <mxGeometry x="440" y="240.16" width="40" height="40" as="geometry" />
        </mxCell>
        <mxCell id="5X8iXu0XxAFvD4XVziGp-402" value="" style="shape=partialRectangle;whiteSpace=wrap;html=1;bottom=0;right=0;fillColor=none;" parent="1" vertex="1">
          <mxGeometry x="190" y="230.16" width="20" height="20" as="geometry" />
        </mxCell>
        <mxCell id="5X8iXu0XxAFvD4XVziGp-403" value="" style="shape=partialRectangle;whiteSpace=wrap;html=1;bottom=0;right=0;fillColor=none;flipH=1;" parent="1" vertex="1">
          <mxGeometry x="470" y="230.16" width="20" height="20" as="geometry" />
        </mxCell>
        <mxCell id="5X8iXu0XxAFvD4XVziGp-404" value="" style="shape=partialRectangle;whiteSpace=wrap;html=1;left=0;right=0;fillColor=none;" parent="1" vertex="1">
          <mxGeometry x="190" y="250.16" width="10" height="20" as="geometry" />
        </mxCell>
        <mxCell id="5X8iXu0XxAFvD4XVziGp-405" value="" style="shape=partialRectangle;whiteSpace=wrap;html=1;left=0;right=0;fillColor=none;" parent="1" vertex="1">
          <mxGeometry x="480" y="250.16" width="10" height="20" as="geometry" />
        </mxCell>
        <mxCell id="5X8iXu0XxAFvD4XVziGp-406" value="" style="shape=partialRectangle;whiteSpace=wrap;html=1;left=0;right=0;fillColor=none;flipV=1;rotation=90;" parent="1" vertex="1">
          <mxGeometry x="250.31999999999994" y="269.85" width="19.37" height="20" as="geometry" />
        </mxCell>
        <mxCell id="5X8iXu0XxAFvD4XVziGp-407" value="" style="shape=partialRectangle;whiteSpace=wrap;html=1;left=0;right=0;fillColor=none;" parent="1" vertex="1">
          <mxGeometry x="240" y="250.16" width="10" height="20" as="geometry" />
        </mxCell>
        <mxCell id="5X8iXu0XxAFvD4XVziGp-408" value="" style="shape=partialRectangle;whiteSpace=wrap;html=1;left=0;right=0;fillColor=none;" parent="1" vertex="1">
          <mxGeometry x="270" y="250.16" width="10" height="20" as="geometry" />
        </mxCell>
        <mxCell id="5X8iXu0XxAFvD4XVziGp-409" value="" style="shape=partialRectangle;whiteSpace=wrap;html=1;left=0;right=0;fillColor=none;flipV=1;rotation=90;" parent="1" vertex="1">
          <mxGeometry x="330.31999999999994" y="270.94" width="19.37" height="20" as="geometry" />
        </mxCell>
        <mxCell id="5X8iXu0XxAFvD4XVziGp-410" value="" style="shape=partialRectangle;whiteSpace=wrap;html=1;left=0;right=0;fillColor=none;" parent="1" vertex="1">
          <mxGeometry x="320" y="251.25" width="10" height="20" as="geometry" />
        </mxCell>
        <mxCell id="5X8iXu0XxAFvD4XVziGp-411" value="" style="shape=partialRectangle;whiteSpace=wrap;html=1;left=0;right=0;fillColor=none;" parent="1" vertex="1">
          <mxGeometry x="350" y="251.25" width="10" height="20" as="geometry" />
        </mxCell>
        <mxCell id="5X8iXu0XxAFvD4XVziGp-412" value="" style="shape=partialRectangle;whiteSpace=wrap;html=1;left=0;right=0;fillColor=none;flipV=1;rotation=90;" parent="1" vertex="1">
          <mxGeometry x="410.31999999999994" y="270.94" width="19.37" height="20" as="geometry" />
        </mxCell>
        <mxCell id="5X8iXu0XxAFvD4XVziGp-413" value="" style="shape=partialRectangle;whiteSpace=wrap;html=1;left=0;right=0;fillColor=none;" parent="1" vertex="1">
          <mxGeometry x="400" y="251.25" width="10" height="20" as="geometry" />
        </mxCell>
        <mxCell id="5X8iXu0XxAFvD4XVziGp-414" value="" style="shape=partialRectangle;whiteSpace=wrap;html=1;left=0;right=0;fillColor=none;" parent="1" vertex="1">
          <mxGeometry x="430" y="251.25" width="10" height="20" as="geometry" />
        </mxCell>
        <mxCell id="5X8iXu0XxAFvD4XVziGp-415" value="" style="shape=partialRectangle;whiteSpace=wrap;html=1;bottom=0;right=0;fillColor=none;flipH=1;flipV=1;" parent="1" vertex="1">
          <mxGeometry x="190" y="280.16" width="20" height="9.84" as="geometry" />
        </mxCell>
        <mxCell id="5X8iXu0XxAFvD4XVziGp-416" value="" style="shape=partialRectangle;whiteSpace=wrap;html=1;bottom=0;right=0;fillColor=none;flipH=1;flipV=1;" parent="1" vertex="1">
          <mxGeometry x="270" y="280.47" width="20" height="9.38" as="geometry" />
        </mxCell>
        <mxCell id="5X8iXu0XxAFvD4XVziGp-417" value="" style="shape=partialRectangle;whiteSpace=wrap;html=1;bottom=0;right=0;fillColor=none;flipH=1;flipV=1;" parent="1" vertex="1">
          <mxGeometry x="350" y="280.16" width="20" height="10.78" as="geometry" />
        </mxCell>
        <mxCell id="5X8iXu0XxAFvD4XVziGp-418" value="" style="shape=partialRectangle;whiteSpace=wrap;html=1;bottom=0;right=0;fillColor=none;flipH=1;flipV=1;" parent="1" vertex="1">
          <mxGeometry x="430" y="280.47" width="20" height="10.78" as="geometry" />
        </mxCell>
        <mxCell id="5X8iXu0XxAFvD4XVziGp-419" value="" style="shape=partialRectangle;whiteSpace=wrap;html=1;bottom=0;right=0;fillColor=none;flipH=0;flipV=1;" parent="1" vertex="1">
          <mxGeometry x="230" y="280.16" width="20" height="9.38" as="geometry" />
        </mxCell>
        <mxCell id="5X8iXu0XxAFvD4XVziGp-420" value="" style="shape=partialRectangle;whiteSpace=wrap;html=1;bottom=0;right=0;fillColor=none;flipH=0;flipV=1;" parent="1" vertex="1">
          <mxGeometry x="310" y="281.17" width="20" height="9.38" as="geometry" />
        </mxCell>
        <mxCell id="5X8iXu0XxAFvD4XVziGp-421" value="" style="shape=partialRectangle;whiteSpace=wrap;html=1;bottom=0;right=0;fillColor=none;flipH=0;flipV=1;" parent="1" vertex="1">
          <mxGeometry x="390" y="281.17" width="20" height="9.38" as="geometry" />
        </mxCell>
        <mxCell id="5X8iXu0XxAFvD4XVziGp-422" value="" style="shape=partialRectangle;whiteSpace=wrap;html=1;bottom=0;right=0;fillColor=none;flipH=0;flipV=1;" parent="1" vertex="1">
          <mxGeometry x="470" y="280.47" width="20" height="9.38" as="geometry" />
        </mxCell>
        <mxCell id="5X8iXu0XxAFvD4XVziGp-423" value="" style="shape=partialRectangle;whiteSpace=wrap;html=1;bottom=0;right=0;fillColor=none;flipH=1;flipV=0;" parent="1" vertex="1">
          <mxGeometry x="190" y="230.16" width="20" height="9.38" as="geometry" />
        </mxCell>
        <mxCell id="5X8iXu0XxAFvD4XVziGp-424" value="" style="shape=partialRectangle;whiteSpace=wrap;html=1;bottom=0;right=0;fillColor=none;flipH=1;" parent="1" vertex="1">
          <mxGeometry x="390.3299999999999" y="230.16" width="20" height="20" as="geometry" />
        </mxCell>
        <mxCell id="5X8iXu0XxAFvD4XVziGp-425" value="" style="shape=partialRectangle;whiteSpace=wrap;html=1;bottom=0;right=0;fillColor=none;flipH=1;" parent="1" vertex="1">
          <mxGeometry x="310" y="230.78" width="20" height="20" as="geometry" />
        </mxCell>
        <mxCell id="5X8iXu0XxAFvD4XVziGp-426" value="" style="shape=partialRectangle;whiteSpace=wrap;html=1;bottom=0;right=0;fillColor=none;flipH=1;" parent="1" vertex="1">
          <mxGeometry x="230.32999999999993" y="230.16" width="20" height="20" as="geometry" />
        </mxCell>
        <mxCell id="5X8iXu0XxAFvD4XVziGp-427" value="" style="shape=partialRectangle;whiteSpace=wrap;html=1;bottom=0;right=0;fillColor=none;flipH=0;flipV=0;" parent="1" vertex="1">
          <mxGeometry x="228.75" y="230.16" width="20" height="9.38" as="geometry" />
        </mxCell>
        <mxCell id="5X8iXu0XxAFvD4XVziGp-428" value="" style="shape=partialRectangle;whiteSpace=wrap;html=1;bottom=0;right=0;fillColor=none;" parent="1" vertex="1">
          <mxGeometry x="270" y="230.16" width="20" height="20" as="geometry" />
        </mxCell>
        <mxCell id="5X8iXu0XxAFvD4XVziGp-429" value="" style="shape=partialRectangle;whiteSpace=wrap;html=1;bottom=0;right=0;fillColor=none;" parent="1" vertex="1">
          <mxGeometry x="350" y="230.01" width="20" height="21.24" as="geometry" />
        </mxCell>
        <mxCell id="5X8iXu0XxAFvD4XVziGp-430" value="" style="shape=partialRectangle;whiteSpace=wrap;html=1;bottom=0;right=0;fillColor=none;" parent="1" vertex="1">
          <mxGeometry x="430" y="230.01" width="20" height="21.24" as="geometry" />
        </mxCell>
        <mxCell id="5X8iXu0XxAFvD4XVziGp-431" value="" style="shape=partialRectangle;whiteSpace=wrap;html=1;left=0;right=0;fillColor=none;flipV=1;flipH=1;rotation=-90;" parent="1" vertex="1">
          <mxGeometry x="295.03999999999996" y="224.92" width="9.93" height="19.85" as="geometry" />
        </mxCell>
        <mxCell id="5X8iXu0XxAFvD4XVziGp-432" value="" style="shape=partialRectangle;whiteSpace=wrap;html=1;left=0;right=0;fillColor=none;flipV=1;flipH=1;rotation=-90;" parent="1" vertex="1">
          <mxGeometry x="375.03999999999996" y="224.92" width="9.93" height="19.85" as="geometry" />
        </mxCell>
        <mxCell id="5X8iXu0XxAFvD4XVziGp-433" value="" style="shape=partialRectangle;whiteSpace=wrap;html=1;left=0;right=0;fillColor=none;flipV=1;flipH=1;rotation=-90;" parent="1" vertex="1">
          <mxGeometry x="455.03999999999996" y="224.92" width="9.93" height="19.85" as="geometry" />
        </mxCell>
        <mxCell id="5X8iXu0XxAFvD4XVziGp-705" value="&lt;b&gt;I&lt;/b&gt;" style="whiteSpace=wrap;html=1;aspect=fixed;fillColor=#dae8fc;strokeColor=#6c8ebf;" parent="1" vertex="1">
          <mxGeometry x="520" y="320.08" width="20" height="20" as="geometry" />
        </mxCell>
        <mxCell id="5X8iXu0XxAFvD4XVziGp-706" value="&lt;b&gt;O&lt;/b&gt;" style="whiteSpace=wrap;html=1;aspect=fixed;fillColor=#dae8fc;strokeColor=#6c8ebf;" parent="1" vertex="1">
          <mxGeometry x="520" y="340.08" width="20" height="20" as="geometry" />
        </mxCell>
        <mxCell id="5X8iXu0XxAFvD4XVziGp-707" value="&lt;b&gt;I&lt;/b&gt;" style="whiteSpace=wrap;html=1;aspect=fixed;fillColor=#dae8fc;strokeColor=#6c8ebf;" parent="1" vertex="1">
          <mxGeometry x="140" y="320.08" width="20" height="20" as="geometry" />
        </mxCell>
        <mxCell id="5X8iXu0XxAFvD4XVziGp-708" value="&lt;b&gt;O&lt;/b&gt;" style="whiteSpace=wrap;html=1;aspect=fixed;fillColor=#dae8fc;strokeColor=#6c8ebf;" parent="1" vertex="1">
          <mxGeometry x="140" y="340.08" width="20" height="20" as="geometry" />
        </mxCell>
        <mxCell id="5X8iXu0XxAFvD4XVziGp-709" value="" style="shape=partialRectangle;whiteSpace=wrap;html=1;left=0;right=0;fillColor=none;flipV=1;rotation=90;" parent="1" vertex="1">
          <mxGeometry x="169.37" y="350.7" width="21.25" height="20" as="geometry" />
        </mxCell>
        <mxCell id="5X8iXu0XxAFvD4XVziGp-710" value="" style="shape=partialRectangle;whiteSpace=wrap;html=1;left=0;right=0;fillColor=none;" parent="1" vertex="1">
          <mxGeometry x="160" y="330.08" width="10" height="20" as="geometry" />
        </mxCell>
        <mxCell id="5X8iXu0XxAFvD4XVziGp-711" value="" style="shape=partialRectangle;whiteSpace=wrap;html=1;left=0;right=0;fillColor=none;flipV=1;rotation=90;" parent="1" vertex="1">
          <mxGeometry x="170.31" y="310.08" width="19.37" height="20" as="geometry" />
        </mxCell>
        <mxCell id="5X8iXu0XxAFvD4XVziGp-712" value="" style="shape=partialRectangle;whiteSpace=wrap;html=1;left=0;right=0;fillColor=none;flipV=1;rotation=90;" parent="1" vertex="1">
          <mxGeometry x="489.7" y="350.4" width="20.62" height="20" as="geometry" />
        </mxCell>
        <mxCell id="5X8iXu0XxAFvD4XVziGp-713" value="" style="shape=partialRectangle;whiteSpace=wrap;html=1;left=0;right=0;fillColor=none;" parent="1" vertex="1">
          <mxGeometry x="480" y="330.08" width="10" height="20" as="geometry" />
        </mxCell>
        <mxCell id="5X8iXu0XxAFvD4XVziGp-714" value="" style="shape=partialRectangle;whiteSpace=wrap;html=1;left=0;right=0;fillColor=none;" parent="1" vertex="1">
          <mxGeometry x="510" y="330.08" width="10" height="20" as="geometry" />
        </mxCell>
        <mxCell id="5X8iXu0XxAFvD4XVziGp-715" value="" style="shape=partialRectangle;whiteSpace=wrap;html=1;left=0;right=0;fillColor=none;flipV=1;rotation=90;" parent="1" vertex="1">
          <mxGeometry x="490.30999999999995" y="310.08" width="19.37" height="20" as="geometry" />
        </mxCell>
        <mxCell id="5X8iXu0XxAFvD4XVziGp-716" value="" style="whiteSpace=wrap;html=1;aspect=fixed;fillColor=#f8cecc;strokeColor=#b85450;" parent="1" vertex="1">
          <mxGeometry x="200" y="320.24" width="40" height="40" as="geometry" />
        </mxCell>
        <mxCell id="5X8iXu0XxAFvD4XVziGp-717" value="" style="whiteSpace=wrap;html=1;aspect=fixed;fillColor=#f8cecc;strokeColor=#b85450;" parent="1" vertex="1">
          <mxGeometry x="280" y="320.24" width="40" height="40" as="geometry" />
        </mxCell>
        <mxCell id="5X8iXu0XxAFvD4XVziGp-718" value="" style="whiteSpace=wrap;html=1;aspect=fixed;fillColor=#f8cecc;strokeColor=#b85450;" parent="1" vertex="1">
          <mxGeometry x="360" y="320.24" width="40" height="40" as="geometry" />
        </mxCell>
        <mxCell id="5X8iXu0XxAFvD4XVziGp-719" value="" style="whiteSpace=wrap;html=1;aspect=fixed;fillColor=#f8cecc;strokeColor=#b85450;" parent="1" vertex="1">
          <mxGeometry x="440" y="320.24" width="40" height="40" as="geometry" />
        </mxCell>
        <mxCell id="5X8iXu0XxAFvD4XVziGp-720" value="" style="shape=partialRectangle;whiteSpace=wrap;html=1;bottom=0;right=0;fillColor=none;" parent="1" vertex="1">
          <mxGeometry x="190" y="310.24" width="20" height="20" as="geometry" />
        </mxCell>
        <mxCell id="5X8iXu0XxAFvD4XVziGp-721" value="" style="shape=partialRectangle;whiteSpace=wrap;html=1;bottom=0;right=0;fillColor=none;flipH=1;" parent="1" vertex="1">
          <mxGeometry x="470" y="310.24" width="20" height="20" as="geometry" />
        </mxCell>
        <mxCell id="5X8iXu0XxAFvD4XVziGp-722" value="" style="shape=partialRectangle;whiteSpace=wrap;html=1;left=0;right=0;fillColor=none;" parent="1" vertex="1">
          <mxGeometry x="190" y="330.23999999999995" width="10" height="20" as="geometry" />
        </mxCell>
        <mxCell id="5X8iXu0XxAFvD4XVziGp-723" value="" style="shape=partialRectangle;whiteSpace=wrap;html=1;left=0;right=0;fillColor=none;" parent="1" vertex="1">
          <mxGeometry x="480" y="330.23999999999995" width="10" height="20" as="geometry" />
        </mxCell>
        <mxCell id="5X8iXu0XxAFvD4XVziGp-724" value="" style="shape=partialRectangle;whiteSpace=wrap;html=1;left=0;right=0;fillColor=none;flipV=1;rotation=90;" parent="1" vertex="1">
          <mxGeometry x="250.31999999999994" y="349.93" width="19.37" height="20" as="geometry" />
        </mxCell>
        <mxCell id="5X8iXu0XxAFvD4XVziGp-725" value="" style="shape=partialRectangle;whiteSpace=wrap;html=1;left=0;right=0;fillColor=none;" parent="1" vertex="1">
          <mxGeometry x="240" y="330.23999999999995" width="10" height="20" as="geometry" />
        </mxCell>
        <mxCell id="5X8iXu0XxAFvD4XVziGp-726" value="" style="shape=partialRectangle;whiteSpace=wrap;html=1;left=0;right=0;fillColor=none;" parent="1" vertex="1">
          <mxGeometry x="270" y="330.23999999999995" width="10" height="20" as="geometry" />
        </mxCell>
        <mxCell id="5X8iXu0XxAFvD4XVziGp-727" value="" style="shape=partialRectangle;whiteSpace=wrap;html=1;left=0;right=0;fillColor=none;flipV=1;rotation=90;" parent="1" vertex="1">
          <mxGeometry x="330.31999999999994" y="351.02" width="19.37" height="20" as="geometry" />
        </mxCell>
        <mxCell id="5X8iXu0XxAFvD4XVziGp-728" value="" style="shape=partialRectangle;whiteSpace=wrap;html=1;left=0;right=0;fillColor=none;" parent="1" vertex="1">
          <mxGeometry x="320" y="331.33" width="10" height="20" as="geometry" />
        </mxCell>
        <mxCell id="5X8iXu0XxAFvD4XVziGp-729" value="" style="shape=partialRectangle;whiteSpace=wrap;html=1;left=0;right=0;fillColor=none;" parent="1" vertex="1">
          <mxGeometry x="350" y="331.33" width="10" height="20" as="geometry" />
        </mxCell>
        <mxCell id="5X8iXu0XxAFvD4XVziGp-730" value="" style="shape=partialRectangle;whiteSpace=wrap;html=1;left=0;right=0;fillColor=none;flipV=1;rotation=90;" parent="1" vertex="1">
          <mxGeometry x="410.31999999999994" y="351.02" width="19.37" height="20" as="geometry" />
        </mxCell>
        <mxCell id="5X8iXu0XxAFvD4XVziGp-731" value="" style="shape=partialRectangle;whiteSpace=wrap;html=1;left=0;right=0;fillColor=none;" parent="1" vertex="1">
          <mxGeometry x="400" y="331.33" width="10" height="20" as="geometry" />
        </mxCell>
        <mxCell id="5X8iXu0XxAFvD4XVziGp-732" value="" style="shape=partialRectangle;whiteSpace=wrap;html=1;left=0;right=0;fillColor=none;" parent="1" vertex="1">
          <mxGeometry x="430" y="331.33" width="10" height="20" as="geometry" />
        </mxCell>
        <mxCell id="5X8iXu0XxAFvD4XVziGp-733" value="" style="shape=partialRectangle;whiteSpace=wrap;html=1;bottom=0;right=0;fillColor=none;flipH=1;flipV=1;" parent="1" vertex="1">
          <mxGeometry x="190.62" y="360" width="20" height="11.33" as="geometry" />
        </mxCell>
        <mxCell id="5X8iXu0XxAFvD4XVziGp-734" value="" style="shape=partialRectangle;whiteSpace=wrap;html=1;bottom=0;right=0;fillColor=none;flipH=1;flipV=1;" parent="1" vertex="1">
          <mxGeometry x="270" y="360.55" width="20" height="9.38" as="geometry" />
        </mxCell>
        <mxCell id="5X8iXu0XxAFvD4XVziGp-735" value="" style="shape=partialRectangle;whiteSpace=wrap;html=1;bottom=0;right=0;fillColor=none;flipH=1;flipV=1;" parent="1" vertex="1">
          <mxGeometry x="350" y="360.24" width="20" height="10.78" as="geometry" />
        </mxCell>
        <mxCell id="5X8iXu0XxAFvD4XVziGp-736" value="" style="shape=partialRectangle;whiteSpace=wrap;html=1;bottom=0;right=0;fillColor=none;flipH=1;flipV=1;" parent="1" vertex="1">
          <mxGeometry x="430" y="360.55" width="20" height="10.78" as="geometry" />
        </mxCell>
        <mxCell id="5X8iXu0XxAFvD4XVziGp-737" value="" style="shape=partialRectangle;whiteSpace=wrap;html=1;bottom=0;right=0;fillColor=none;flipH=0;flipV=1;" parent="1" vertex="1">
          <mxGeometry x="230" y="360.24" width="20" height="9.38" as="geometry" />
        </mxCell>
        <mxCell id="5X8iXu0XxAFvD4XVziGp-738" value="" style="shape=partialRectangle;whiteSpace=wrap;html=1;bottom=0;right=0;fillColor=none;flipH=0;flipV=1;" parent="1" vertex="1">
          <mxGeometry x="310" y="361.25" width="20" height="9.38" as="geometry" />
        </mxCell>
        <mxCell id="5X8iXu0XxAFvD4XVziGp-739" value="" style="shape=partialRectangle;whiteSpace=wrap;html=1;bottom=0;right=0;fillColor=none;flipH=0;flipV=1;" parent="1" vertex="1">
          <mxGeometry x="390" y="361.25" width="20" height="9.38" as="geometry" />
        </mxCell>
        <mxCell id="5X8iXu0XxAFvD4XVziGp-740" value="" style="shape=partialRectangle;whiteSpace=wrap;html=1;bottom=0;right=0;fillColor=none;flipH=0;flipV=1;" parent="1" vertex="1">
          <mxGeometry x="470" y="360.55" width="20" height="9.45" as="geometry" />
        </mxCell>
        <mxCell id="5X8iXu0XxAFvD4XVziGp-741" value="" style="shape=partialRectangle;whiteSpace=wrap;html=1;bottom=0;right=0;fillColor=none;flipH=1;flipV=0;" parent="1" vertex="1">
          <mxGeometry x="190" y="310.24" width="20" height="9.38" as="geometry" />
        </mxCell>
        <mxCell id="5X8iXu0XxAFvD4XVziGp-742" value="" style="shape=partialRectangle;whiteSpace=wrap;html=1;bottom=0;right=0;fillColor=none;flipH=1;" parent="1" vertex="1">
          <mxGeometry x="390.3299999999999" y="310.24" width="20" height="20" as="geometry" />
        </mxCell>
        <mxCell id="5X8iXu0XxAFvD4XVziGp-743" value="" style="shape=partialRectangle;whiteSpace=wrap;html=1;bottom=0;right=0;fillColor=none;flipH=1;" parent="1" vertex="1">
          <mxGeometry x="310" y="310.86" width="20" height="20" as="geometry" />
        </mxCell>
        <mxCell id="5X8iXu0XxAFvD4XVziGp-744" value="" style="shape=partialRectangle;whiteSpace=wrap;html=1;bottom=0;right=0;fillColor=none;flipH=1;" parent="1" vertex="1">
          <mxGeometry x="230.32999999999993" y="310.24" width="20" height="20" as="geometry" />
        </mxCell>
        <mxCell id="5X8iXu0XxAFvD4XVziGp-745" value="" style="shape=partialRectangle;whiteSpace=wrap;html=1;bottom=0;right=0;fillColor=none;flipH=0;flipV=0;" parent="1" vertex="1">
          <mxGeometry x="228.75" y="310.24" width="20" height="9.38" as="geometry" />
        </mxCell>
        <mxCell id="5X8iXu0XxAFvD4XVziGp-746" value="" style="shape=partialRectangle;whiteSpace=wrap;html=1;bottom=0;right=0;fillColor=none;" parent="1" vertex="1">
          <mxGeometry x="270" y="310.24" width="20" height="20" as="geometry" />
        </mxCell>
        <mxCell id="5X8iXu0XxAFvD4XVziGp-747" value="" style="shape=partialRectangle;whiteSpace=wrap;html=1;bottom=0;right=0;fillColor=none;" parent="1" vertex="1">
          <mxGeometry x="350" y="310.09" width="20" height="21.24" as="geometry" />
        </mxCell>
        <mxCell id="5X8iXu0XxAFvD4XVziGp-748" value="" style="shape=partialRectangle;whiteSpace=wrap;html=1;bottom=0;right=0;fillColor=none;" parent="1" vertex="1">
          <mxGeometry x="430" y="310.09" width="20" height="21.24" as="geometry" />
        </mxCell>
        <mxCell id="5X8iXu0XxAFvD4XVziGp-749" value="" style="shape=partialRectangle;whiteSpace=wrap;html=1;left=0;right=0;fillColor=none;flipV=1;flipH=1;rotation=-90;" parent="1" vertex="1">
          <mxGeometry x="295.03999999999996" y="305" width="9.93" height="19.85" as="geometry" />
        </mxCell>
        <mxCell id="5X8iXu0XxAFvD4XVziGp-750" value="" style="shape=partialRectangle;whiteSpace=wrap;html=1;left=0;right=0;fillColor=none;flipV=1;flipH=1;rotation=-90;" parent="1" vertex="1">
          <mxGeometry x="375.03999999999996" y="305" width="9.93" height="19.85" as="geometry" />
        </mxCell>
        <mxCell id="5X8iXu0XxAFvD4XVziGp-751" value="" style="shape=partialRectangle;whiteSpace=wrap;html=1;left=0;right=0;fillColor=none;flipV=1;flipH=1;rotation=-90;" parent="1" vertex="1">
          <mxGeometry x="455.03999999999996" y="305" width="9.93" height="19.85" as="geometry" />
        </mxCell>
        <mxCell id="5X8iXu0XxAFvD4XVziGp-799" value="&lt;b&gt;I&lt;/b&gt;" style="whiteSpace=wrap;html=1;aspect=fixed;fillColor=#dae8fc;strokeColor=#6c8ebf;" parent="1" vertex="1">
          <mxGeometry x="520" y="400.08" width="20" height="20" as="geometry" />
        </mxCell>
        <mxCell id="5X8iXu0XxAFvD4XVziGp-800" value="&lt;b&gt;O&lt;/b&gt;" style="whiteSpace=wrap;html=1;aspect=fixed;fillColor=#dae8fc;strokeColor=#6c8ebf;" parent="1" vertex="1">
          <mxGeometry x="520" y="420.08" width="20" height="20" as="geometry" />
        </mxCell>
        <mxCell id="5X8iXu0XxAFvD4XVziGp-801" value="&lt;b&gt;I&lt;/b&gt;" style="whiteSpace=wrap;html=1;aspect=fixed;fillColor=#dae8fc;strokeColor=#6c8ebf;" parent="1" vertex="1">
          <mxGeometry x="140" y="400.08" width="20" height="20" as="geometry" />
        </mxCell>
        <mxCell id="5X8iXu0XxAFvD4XVziGp-802" value="&lt;b&gt;O&lt;/b&gt;" style="whiteSpace=wrap;html=1;aspect=fixed;fillColor=#dae8fc;strokeColor=#6c8ebf;" parent="1" vertex="1">
          <mxGeometry x="140" y="420.08" width="20" height="20" as="geometry" />
        </mxCell>
        <mxCell id="5X8iXu0XxAFvD4XVziGp-803" value="" style="shape=partialRectangle;whiteSpace=wrap;html=1;left=0;right=0;fillColor=none;flipV=1;rotation=90;" parent="1" vertex="1">
          <mxGeometry x="169.68" y="430.39" width="20.63" height="20" as="geometry" />
        </mxCell>
        <mxCell id="5X8iXu0XxAFvD4XVziGp-804" value="" style="shape=partialRectangle;whiteSpace=wrap;html=1;left=0;right=0;fillColor=none;" parent="1" vertex="1">
          <mxGeometry x="160" y="410.08" width="10" height="20" as="geometry" />
        </mxCell>
        <mxCell id="5X8iXu0XxAFvD4XVziGp-805" value="" style="shape=partialRectangle;whiteSpace=wrap;html=1;left=0;right=0;fillColor=none;flipV=1;rotation=90;" parent="1" vertex="1">
          <mxGeometry x="170.31" y="390.08" width="19.37" height="20" as="geometry" />
        </mxCell>
        <mxCell id="5X8iXu0XxAFvD4XVziGp-806" value="" style="shape=partialRectangle;whiteSpace=wrap;html=1;left=0;right=0;fillColor=none;flipV=1;rotation=90;" parent="1" vertex="1">
          <mxGeometry x="489.68" y="430.39" width="20.63" height="20" as="geometry" />
        </mxCell>
        <mxCell id="5X8iXu0XxAFvD4XVziGp-807" value="" style="shape=partialRectangle;whiteSpace=wrap;html=1;left=0;right=0;fillColor=none;" parent="1" vertex="1">
          <mxGeometry x="480" y="410.08" width="10" height="20" as="geometry" />
        </mxCell>
        <mxCell id="5X8iXu0XxAFvD4XVziGp-808" value="" style="shape=partialRectangle;whiteSpace=wrap;html=1;left=0;right=0;fillColor=none;" parent="1" vertex="1">
          <mxGeometry x="510" y="410.08" width="10" height="20" as="geometry" />
        </mxCell>
        <mxCell id="5X8iXu0XxAFvD4XVziGp-809" value="" style="shape=partialRectangle;whiteSpace=wrap;html=1;left=0;right=0;fillColor=none;flipV=1;rotation=90;" parent="1" vertex="1">
          <mxGeometry x="490.30999999999995" y="390.08" width="19.37" height="20" as="geometry" />
        </mxCell>
        <mxCell id="5X8iXu0XxAFvD4XVziGp-810" value="" style="whiteSpace=wrap;html=1;aspect=fixed;fillColor=#f8cecc;strokeColor=#b85450;" parent="1" vertex="1">
          <mxGeometry x="200" y="400.24" width="40" height="40" as="geometry" />
        </mxCell>
        <mxCell id="5X8iXu0XxAFvD4XVziGp-811" value="" style="whiteSpace=wrap;html=1;aspect=fixed;fillColor=#f8cecc;strokeColor=#b85450;" parent="1" vertex="1">
          <mxGeometry x="280" y="400.24" width="40" height="40" as="geometry" />
        </mxCell>
        <mxCell id="5X8iXu0XxAFvD4XVziGp-812" value="" style="whiteSpace=wrap;html=1;aspect=fixed;fillColor=#f8cecc;strokeColor=#b85450;" parent="1" vertex="1">
          <mxGeometry x="360" y="400.24" width="40" height="40" as="geometry" />
        </mxCell>
        <mxCell id="5X8iXu0XxAFvD4XVziGp-813" value="" style="whiteSpace=wrap;html=1;aspect=fixed;fillColor=#f8cecc;strokeColor=#b85450;" parent="1" vertex="1">
          <mxGeometry x="440" y="400.24" width="40" height="40" as="geometry" />
        </mxCell>
        <mxCell id="5X8iXu0XxAFvD4XVziGp-814" value="" style="shape=partialRectangle;whiteSpace=wrap;html=1;bottom=0;right=0;fillColor=none;" parent="1" vertex="1">
          <mxGeometry x="190" y="390.24" width="20" height="20" as="geometry" />
        </mxCell>
        <mxCell id="5X8iXu0XxAFvD4XVziGp-815" value="" style="shape=partialRectangle;whiteSpace=wrap;html=1;bottom=0;right=0;fillColor=none;flipH=1;" parent="1" vertex="1">
          <mxGeometry x="470" y="390.24" width="20" height="20" as="geometry" />
        </mxCell>
        <mxCell id="5X8iXu0XxAFvD4XVziGp-816" value="" style="shape=partialRectangle;whiteSpace=wrap;html=1;left=0;right=0;fillColor=none;" parent="1" vertex="1">
          <mxGeometry x="190" y="410.23999999999995" width="10" height="20" as="geometry" />
        </mxCell>
        <mxCell id="5X8iXu0XxAFvD4XVziGp-817" value="" style="shape=partialRectangle;whiteSpace=wrap;html=1;left=0;right=0;fillColor=none;" parent="1" vertex="1">
          <mxGeometry x="480" y="410.23999999999995" width="10" height="20" as="geometry" />
        </mxCell>
        <mxCell id="5X8iXu0XxAFvD4XVziGp-818" value="" style="shape=partialRectangle;whiteSpace=wrap;html=1;left=0;right=0;fillColor=none;flipV=1;rotation=90;" parent="1" vertex="1">
          <mxGeometry x="250.31999999999994" y="429.93" width="19.37" height="20" as="geometry" />
        </mxCell>
        <mxCell id="5X8iXu0XxAFvD4XVziGp-819" value="" style="shape=partialRectangle;whiteSpace=wrap;html=1;left=0;right=0;fillColor=none;" parent="1" vertex="1">
          <mxGeometry x="240" y="410.23999999999995" width="10" height="20" as="geometry" />
        </mxCell>
        <mxCell id="5X8iXu0XxAFvD4XVziGp-820" value="" style="shape=partialRectangle;whiteSpace=wrap;html=1;left=0;right=0;fillColor=none;" parent="1" vertex="1">
          <mxGeometry x="270" y="410.23999999999995" width="10" height="20" as="geometry" />
        </mxCell>
        <mxCell id="5X8iXu0XxAFvD4XVziGp-821" value="" style="shape=partialRectangle;whiteSpace=wrap;html=1;left=0;right=0;fillColor=none;flipV=1;rotation=90;" parent="1" vertex="1">
          <mxGeometry x="330.31999999999994" y="431.02" width="19.37" height="20" as="geometry" />
        </mxCell>
        <mxCell id="5X8iXu0XxAFvD4XVziGp-822" value="" style="shape=partialRectangle;whiteSpace=wrap;html=1;left=0;right=0;fillColor=none;" parent="1" vertex="1">
          <mxGeometry x="320" y="411.33" width="10" height="20" as="geometry" />
        </mxCell>
        <mxCell id="5X8iXu0XxAFvD4XVziGp-823" value="" style="shape=partialRectangle;whiteSpace=wrap;html=1;left=0;right=0;fillColor=none;" parent="1" vertex="1">
          <mxGeometry x="350" y="411.33" width="10" height="20" as="geometry" />
        </mxCell>
        <mxCell id="5X8iXu0XxAFvD4XVziGp-824" value="" style="shape=partialRectangle;whiteSpace=wrap;html=1;left=0;right=0;fillColor=none;flipV=1;rotation=90;" parent="1" vertex="1">
          <mxGeometry x="410.31999999999994" y="431.02" width="19.37" height="20" as="geometry" />
        </mxCell>
        <mxCell id="5X8iXu0XxAFvD4XVziGp-825" value="" style="shape=partialRectangle;whiteSpace=wrap;html=1;left=0;right=0;fillColor=none;" parent="1" vertex="1">
          <mxGeometry x="400" y="411.33" width="10" height="20" as="geometry" />
        </mxCell>
        <mxCell id="5X8iXu0XxAFvD4XVziGp-826" value="" style="shape=partialRectangle;whiteSpace=wrap;html=1;left=0;right=0;fillColor=none;" parent="1" vertex="1">
          <mxGeometry x="430" y="411.33" width="10" height="20" as="geometry" />
        </mxCell>
        <mxCell id="5X8iXu0XxAFvD4XVziGp-827" value="" style="shape=partialRectangle;whiteSpace=wrap;html=1;bottom=0;right=0;fillColor=none;flipH=1;flipV=1;" parent="1" vertex="1">
          <mxGeometry x="190" y="440.24" width="20" height="9.76" as="geometry" />
        </mxCell>
        <mxCell id="5X8iXu0XxAFvD4XVziGp-828" value="" style="shape=partialRectangle;whiteSpace=wrap;html=1;bottom=0;right=0;fillColor=none;flipH=1;flipV=1;" parent="1" vertex="1">
          <mxGeometry x="270" y="440.55" width="20" height="9.38" as="geometry" />
        </mxCell>
        <mxCell id="5X8iXu0XxAFvD4XVziGp-829" value="" style="shape=partialRectangle;whiteSpace=wrap;html=1;bottom=0;right=0;fillColor=none;flipH=1;flipV=1;" parent="1" vertex="1">
          <mxGeometry x="350" y="440.24" width="20" height="10.78" as="geometry" />
        </mxCell>
        <mxCell id="5X8iXu0XxAFvD4XVziGp-830" value="" style="shape=partialRectangle;whiteSpace=wrap;html=1;bottom=0;right=0;fillColor=none;flipH=1;flipV=1;" parent="1" vertex="1">
          <mxGeometry x="430" y="440.55" width="20" height="10.78" as="geometry" />
        </mxCell>
        <mxCell id="5X8iXu0XxAFvD4XVziGp-831" value="" style="shape=partialRectangle;whiteSpace=wrap;html=1;bottom=0;right=0;fillColor=none;flipH=0;flipV=1;" parent="1" vertex="1">
          <mxGeometry x="230" y="440.24" width="20" height="9.38" as="geometry" />
        </mxCell>
        <mxCell id="5X8iXu0XxAFvD4XVziGp-832" value="" style="shape=partialRectangle;whiteSpace=wrap;html=1;bottom=0;right=0;fillColor=none;flipH=0;flipV=1;" parent="1" vertex="1">
          <mxGeometry x="310" y="441.25" width="20" height="9.38" as="geometry" />
        </mxCell>
        <mxCell id="5X8iXu0XxAFvD4XVziGp-833" value="" style="shape=partialRectangle;whiteSpace=wrap;html=1;bottom=0;right=0;fillColor=none;flipH=0;flipV=1;" parent="1" vertex="1">
          <mxGeometry x="390" y="441.25" width="20" height="9.38" as="geometry" />
        </mxCell>
        <mxCell id="5X8iXu0XxAFvD4XVziGp-834" value="" style="shape=partialRectangle;whiteSpace=wrap;html=1;bottom=0;right=0;fillColor=none;flipH=0;flipV=1;" parent="1" vertex="1">
          <mxGeometry x="470" y="440.55" width="20" height="9.45" as="geometry" />
        </mxCell>
        <mxCell id="5X8iXu0XxAFvD4XVziGp-835" value="" style="shape=partialRectangle;whiteSpace=wrap;html=1;bottom=0;right=0;fillColor=none;flipH=1;flipV=0;" parent="1" vertex="1">
          <mxGeometry x="190" y="390.24" width="20" height="9.38" as="geometry" />
        </mxCell>
        <mxCell id="5X8iXu0XxAFvD4XVziGp-836" value="" style="shape=partialRectangle;whiteSpace=wrap;html=1;bottom=0;right=0;fillColor=none;flipH=1;" parent="1" vertex="1">
          <mxGeometry x="390.3299999999999" y="390.24" width="20" height="20" as="geometry" />
        </mxCell>
        <mxCell id="5X8iXu0XxAFvD4XVziGp-837" value="" style="shape=partialRectangle;whiteSpace=wrap;html=1;bottom=0;right=0;fillColor=none;flipH=1;" parent="1" vertex="1">
          <mxGeometry x="310" y="390.86" width="20" height="20" as="geometry" />
        </mxCell>
        <mxCell id="5X8iXu0XxAFvD4XVziGp-838" value="" style="shape=partialRectangle;whiteSpace=wrap;html=1;bottom=0;right=0;fillColor=none;flipH=1;" parent="1" vertex="1">
          <mxGeometry x="230.32999999999993" y="390.24" width="20" height="20" as="geometry" />
        </mxCell>
        <mxCell id="5X8iXu0XxAFvD4XVziGp-839" value="" style="shape=partialRectangle;whiteSpace=wrap;html=1;bottom=0;right=0;fillColor=none;flipH=0;flipV=0;" parent="1" vertex="1">
          <mxGeometry x="228.75" y="390.24" width="20" height="9.38" as="geometry" />
        </mxCell>
        <mxCell id="5X8iXu0XxAFvD4XVziGp-840" value="" style="shape=partialRectangle;whiteSpace=wrap;html=1;bottom=0;right=0;fillColor=none;" parent="1" vertex="1">
          <mxGeometry x="270" y="390.24" width="20" height="20" as="geometry" />
        </mxCell>
        <mxCell id="5X8iXu0XxAFvD4XVziGp-841" value="" style="shape=partialRectangle;whiteSpace=wrap;html=1;bottom=0;right=0;fillColor=none;" parent="1" vertex="1">
          <mxGeometry x="350" y="390.09" width="20" height="21.24" as="geometry" />
        </mxCell>
        <mxCell id="5X8iXu0XxAFvD4XVziGp-842" value="" style="shape=partialRectangle;whiteSpace=wrap;html=1;bottom=0;right=0;fillColor=none;" parent="1" vertex="1">
          <mxGeometry x="430" y="390.09" width="20" height="21.24" as="geometry" />
        </mxCell>
        <mxCell id="5X8iXu0XxAFvD4XVziGp-843" value="" style="shape=partialRectangle;whiteSpace=wrap;html=1;left=0;right=0;fillColor=none;flipV=1;flipH=1;rotation=-90;" parent="1" vertex="1">
          <mxGeometry x="295.03999999999996" y="385" width="9.93" height="19.85" as="geometry" />
        </mxCell>
        <mxCell id="5X8iXu0XxAFvD4XVziGp-844" value="" style="shape=partialRectangle;whiteSpace=wrap;html=1;left=0;right=0;fillColor=none;flipV=1;flipH=1;rotation=-90;" parent="1" vertex="1">
          <mxGeometry x="375.03999999999996" y="385" width="9.93" height="19.85" as="geometry" />
        </mxCell>
        <mxCell id="5X8iXu0XxAFvD4XVziGp-845" value="" style="shape=partialRectangle;whiteSpace=wrap;html=1;left=0;right=0;fillColor=none;flipV=1;flipH=1;rotation=-90;" parent="1" vertex="1">
          <mxGeometry x="455.03999999999996" y="385" width="9.93" height="19.85" as="geometry" />
        </mxCell>
        <mxCell id="5X8iXu0XxAFvD4XVziGp-846" value="&lt;b&gt;I&lt;/b&gt;" style="whiteSpace=wrap;html=1;aspect=fixed;fillColor=#dae8fc;strokeColor=#6c8ebf;" parent="1" vertex="1">
          <mxGeometry x="200" y="480" width="20" height="20" as="geometry" />
        </mxCell>
        <mxCell id="5X8iXu0XxAFvD4XVziGp-847" value="&lt;b&gt;O&lt;/b&gt;" style="whiteSpace=wrap;html=1;aspect=fixed;fillColor=#dae8fc;strokeColor=#6c8ebf;" parent="1" vertex="1">
          <mxGeometry x="220" y="480" width="20" height="20" as="geometry" />
        </mxCell>
        <mxCell id="5X8iXu0XxAFvD4XVziGp-848" value="&lt;b&gt;I&lt;/b&gt;" style="whiteSpace=wrap;html=1;aspect=fixed;fillColor=#dae8fc;strokeColor=#6c8ebf;" parent="1" vertex="1">
          <mxGeometry x="280" y="480" width="20" height="20" as="geometry" />
        </mxCell>
        <mxCell id="5X8iXu0XxAFvD4XVziGp-849" value="&lt;b&gt;O&lt;/b&gt;" style="whiteSpace=wrap;html=1;aspect=fixed;fillColor=#dae8fc;strokeColor=#6c8ebf;" parent="1" vertex="1">
          <mxGeometry x="300" y="480" width="20" height="20" as="geometry" />
        </mxCell>
        <mxCell id="5X8iXu0XxAFvD4XVziGp-850" value="&lt;b&gt;I&lt;/b&gt;" style="whiteSpace=wrap;html=1;aspect=fixed;fillColor=#dae8fc;strokeColor=#6c8ebf;" parent="1" vertex="1">
          <mxGeometry x="360" y="480" width="20" height="20" as="geometry" />
        </mxCell>
        <mxCell id="5X8iXu0XxAFvD4XVziGp-851" value="&lt;b&gt;O&lt;/b&gt;" style="whiteSpace=wrap;html=1;aspect=fixed;fillColor=#dae8fc;strokeColor=#6c8ebf;" parent="1" vertex="1">
          <mxGeometry x="380" y="480" width="20" height="20" as="geometry" />
        </mxCell>
        <mxCell id="5X8iXu0XxAFvD4XVziGp-852" value="&lt;b&gt;I&lt;/b&gt;" style="whiteSpace=wrap;html=1;aspect=fixed;fillColor=#dae8fc;strokeColor=#6c8ebf;" parent="1" vertex="1">
          <mxGeometry x="440" y="480" width="20" height="20" as="geometry" />
        </mxCell>
        <mxCell id="5X8iXu0XxAFvD4XVziGp-853" value="&lt;b&gt;O&lt;/b&gt;" style="whiteSpace=wrap;html=1;aspect=fixed;fillColor=#dae8fc;strokeColor=#6c8ebf;" parent="1" vertex="1">
          <mxGeometry x="460" y="480" width="20" height="20" as="geometry" />
        </mxCell>
        <mxCell id="5X8iXu0XxAFvD4XVziGp-854" value="" style="shape=partialRectangle;whiteSpace=wrap;html=1;bottom=0;right=0;fillColor=none;flipV=1;" parent="1" vertex="1">
          <mxGeometry x="170" y="451.33" width="40" height="18.67" as="geometry" />
        </mxCell>
        <mxCell id="5X8iXu0XxAFvD4XVziGp-855" value="" style="shape=partialRectangle;whiteSpace=wrap;html=1;bottom=0;right=0;fillColor=none;flipV=1;flipH=1;" parent="1" vertex="1">
          <mxGeometry x="470" y="450.33" width="40" height="19.67" as="geometry" />
        </mxCell>
        <mxCell id="5X8iXu0XxAFvD4XVziGp-856" value="" style="shape=partialRectangle;whiteSpace=wrap;html=1;bottom=0;top=0;fillColor=none;" parent="1" vertex="1">
          <mxGeometry x="210" y="120" width="20" height="10" as="geometry" />
        </mxCell>
        <mxCell id="5X8iXu0XxAFvD4XVziGp-857" value="" style="shape=partialRectangle;whiteSpace=wrap;html=1;bottom=0;top=0;fillColor=none;" parent="1" vertex="1">
          <mxGeometry x="290" y="120" width="20" height="10" as="geometry" />
        </mxCell>
        <mxCell id="5X8iXu0XxAFvD4XVziGp-858" value="" style="shape=partialRectangle;whiteSpace=wrap;html=1;bottom=0;top=0;fillColor=none;" parent="1" vertex="1">
          <mxGeometry x="370" y="120" width="20" height="10" as="geometry" />
        </mxCell>
        <mxCell id="5X8iXu0XxAFvD4XVziGp-859" value="" style="shape=partialRectangle;whiteSpace=wrap;html=1;bottom=0;top=0;fillColor=none;" parent="1" vertex="1">
          <mxGeometry x="450" y="120" width="20" height="10" as="geometry" />
        </mxCell>
        <mxCell id="5X8iXu0XxAFvD4XVziGp-860" value="" style="shape=partialRectangle;whiteSpace=wrap;html=1;bottom=0;top=0;fillColor=none;" parent="1" vertex="1">
          <mxGeometry x="208.75" y="470" width="20" height="10" as="geometry" />
        </mxCell>
        <mxCell id="5X8iXu0XxAFvD4XVziGp-861" value="" style="shape=partialRectangle;whiteSpace=wrap;html=1;bottom=0;top=0;fillColor=none;" parent="1" vertex="1">
          <mxGeometry x="289.93" y="470" width="20" height="10" as="geometry" />
        </mxCell>
        <mxCell id="5X8iXu0XxAFvD4XVziGp-862" value="" style="shape=partialRectangle;whiteSpace=wrap;html=1;bottom=0;top=0;fillColor=none;" parent="1" vertex="1">
          <mxGeometry x="370" y="470" width="20" height="10" as="geometry" />
        </mxCell>
        <mxCell id="5X8iXu0XxAFvD4XVziGp-863" value="" style="shape=partialRectangle;whiteSpace=wrap;html=1;bottom=0;top=0;fillColor=none;" parent="1" vertex="1">
          <mxGeometry x="450" y="470" width="20" height="10" as="geometry" />
        </mxCell>
        <mxCell id="5X8iXu0XxAFvD4XVziGp-864" value="" style="shape=partialRectangle;whiteSpace=wrap;html=1;bottom=0;top=0;fillColor=none;right=0;" parent="1" vertex="1">
          <mxGeometry x="170" y="290.55" width="20" height="19" as="geometry" />
        </mxCell>
        <mxCell id="5X8iXu0XxAFvD4XVziGp-865" value="" style="shape=partialRectangle;whiteSpace=wrap;html=1;bottom=0;top=0;fillColor=none;right=0;" parent="1" vertex="1">
          <mxGeometry x="170" y="371.86" width="20" height="19" as="geometry" />
        </mxCell>
        <mxCell id="5X8iXu0XxAFvD4XVziGp-866" value="" style="shape=partialRectangle;whiteSpace=wrap;html=1;bottom=0;top=0;fillColor=none;right=0;rotation=90;" parent="1" vertex="1">
          <mxGeometry x="249.25" y="109.75" width="20" height="59.5" as="geometry" />
        </mxCell>
        <mxCell id="5X8iXu0XxAFvD4XVziGp-868" value="" style="shape=partialRectangle;whiteSpace=wrap;html=1;bottom=0;top=0;fillColor=none;right=0;rotation=90;" parent="1" vertex="1">
          <mxGeometry x="329.25" y="109.75" width="20" height="59.5" as="geometry" />
        </mxCell>
        <mxCell id="5X8iXu0XxAFvD4XVziGp-869" value="" style="shape=partialRectangle;whiteSpace=wrap;html=1;bottom=0;top=0;fillColor=none;right=0;rotation=90;" parent="1" vertex="1">
          <mxGeometry x="408.82" y="109.87" width="20" height="59.25" as="geometry" />
        </mxCell>
        <mxCell id="5X8iXu0XxAFvD4XVziGp-871" value="" style="shape=partialRectangle;whiteSpace=wrap;html=1;left=0;right=0;fillColor=none;top=0;" parent="1" vertex="1">
          <mxGeometry x="230" y="460" width="60" height="10" as="geometry" />
        </mxCell>
        <mxCell id="5X8iXu0XxAFvD4XVziGp-872" value="" style="shape=partialRectangle;whiteSpace=wrap;html=1;left=0;right=0;fillColor=none;top=0;" parent="1" vertex="1">
          <mxGeometry x="310" y="460" width="60" height="10" as="geometry" />
        </mxCell>
        <mxCell id="5X8iXu0XxAFvD4XVziGp-873" value="" style="shape=partialRectangle;whiteSpace=wrap;html=1;left=0;right=0;fillColor=none;top=0;" parent="1" vertex="1">
          <mxGeometry x="390" y="460" width="60" height="10" as="geometry" />
        </mxCell>
        <mxCell id="5X8iXu0XxAFvD4XVziGp-874" value="" style="shape=partialRectangle;whiteSpace=wrap;html=1;left=0;right=0;fillColor=none;flipV=1;rotation=90;bottom=1;top=0;" parent="1" vertex="1">
          <mxGeometry x="485" y="286.25" width="29.37" height="20.31" as="geometry" />
        </mxCell>
        <mxCell id="5X8iXu0XxAFvD4XVziGp-875" value="" style="shape=partialRectangle;whiteSpace=wrap;html=1;left=0;right=0;fillColor=none;flipV=1;rotation=90;bottom=1;top=0;" parent="1" vertex="1">
          <mxGeometry x="485" y="366.86" width="29.37" height="20.31" as="geometry" />
        </mxCell>
        <mxCell id="5X8iXu0XxAFvD4XVziGp-879" value="" style="endArrow=classic;html=1;rounded=0;" parent="1" edge="1">
          <mxGeometry width="50" height="50" relative="1" as="geometry">
            <mxPoint x="460" y="220" as="sourcePoint" />
            <mxPoint x="560" y="120" as="targetPoint" />
          </mxGeometry>
        </mxCell>
        <mxCell id="5X8iXu0XxAFvD4XVziGp-881" value="&lt;div style=&quot;text-align: center;&quot;&gt;&lt;span style=&quot;background-color: initial; text-wrap: nowrap;&quot;&gt;&lt;b&gt;&lt;font style=&quot;font-size: 16px;&quot;&gt;FPGA&lt;/font&gt;&lt;/b&gt;&lt;/span&gt;&lt;/div&gt;" style="text;whiteSpace=wrap;html=1;" parent="1" vertex="1">
          <mxGeometry x="315.25" y="60" width="48" height="30" as="geometry" />
        </mxCell>
        <mxCell id="5X8iXu0XxAFvD4XVziGp-882" value="" style="endArrow=classic;html=1;rounded=0;exitX=1;exitY=0.5;exitDx=0;exitDy=0;" parent="1" source="5X8iXu0XxAFvD4XVziGp-106" edge="1">
          <mxGeometry width="50" height="50" relative="1" as="geometry">
            <mxPoint x="550" y="200" as="sourcePoint" />
            <mxPoint x="560" y="170" as="targetPoint" />
          </mxGeometry>
        </mxCell>
        <mxCell id="5X8iXu0XxAFvD4XVziGp-884" value="" style="endArrow=classic;html=1;rounded=0;exitX=1;exitY=0.5;exitDx=0;exitDy=0;" parent="1" source="5X8iXu0XxAFvD4XVziGp-107" edge="1">
          <mxGeometry width="50" height="50" relative="1" as="geometry">
            <mxPoint x="550" y="180" as="sourcePoint" />
            <mxPoint x="560" y="180" as="targetPoint" />
          </mxGeometry>
        </mxCell>
        <mxCell id="5X8iXu0XxAFvD4XVziGp-885" value="&lt;b&gt;Input/Output&amp;nbsp;&lt;/b&gt;&lt;div&gt;&lt;b&gt;Blocks&amp;nbsp;&lt;/b&gt;&lt;/div&gt;" style="text;html=1;align=center;verticalAlign=middle;resizable=0;points=[];autosize=1;strokeColor=none;fillColor=none;" parent="1" vertex="1">
          <mxGeometry x="555" y="159.38" width="100" height="40" as="geometry" />
        </mxCell>
        <mxCell id="5X8iXu0XxAFvD4XVziGp-886" value="" style="endArrow=classic;html=1;rounded=0;" parent="1" edge="1">
          <mxGeometry width="50" height="50" relative="1" as="geometry">
            <mxPoint x="460" y="340" as="sourcePoint" />
            <mxPoint x="560" y="280" as="targetPoint" />
          </mxGeometry>
        </mxCell>
        <mxCell id="5X8iXu0XxAFvD4XVziGp-887" value="&lt;b&gt;Logic&amp;nbsp;&lt;/b&gt;&lt;b style=&quot;background-color: initial;&quot;&gt;Blocks&amp;nbsp;&lt;/b&gt;" style="text;html=1;align=center;verticalAlign=middle;resizable=0;points=[];autosize=1;strokeColor=none;fillColor=none;" parent="1" vertex="1">
          <mxGeometry x="555" y="260.94" width="100" height="30" as="geometry" />
        </mxCell>
        <mxCell id="5X8iXu0XxAFvD4XVziGp-890" value="&lt;b&gt;Programmable&amp;nbsp;&lt;/b&gt;&lt;div&gt;&lt;b&gt;Routing&lt;/b&gt;&lt;/div&gt;" style="text;html=1;align=center;verticalAlign=middle;resizable=0;points=[];autosize=1;strokeColor=none;fillColor=none;" parent="1" vertex="1">
          <mxGeometry x="550" y="100" width="110" height="40" as="geometry" />
        </mxCell>
      </root>
    </mxGraphModel>
  </diagram>
</mxfile>
